<svg width="351" height="109" viewBox="0 0 351 109" fill="none" xmlns="http://www.w3.org/2000/svg">
<path d="M350.25 60V81H329.25V60H350.25Z" fill="#E24983"/>
<path d="M310.3 7V81H293.2V7H310.3Z" fill="#0F0F0F"/>
<path d="M280.8 52.2C280.8 53.8 280.7 55.4667 280.5 57.2H241.8C242.067 60.667 243.167 63.333 245.1 65.2C247.1 67 249.533 67.9 252.4 67.9C256.667 67.9 259.633 66.1 261.3 62.5H279.5C278.567 66.167 276.867 69.467 274.4 72.4C272 75.333 268.967 77.633 265.3 79.3C261.633 80.967 257.533 81.8 253 81.8C247.533 81.8 242.667 80.633 238.4 78.3C234.133 75.967 230.8 72.633 228.4 68.3C226 63.967 224.8 58.9 224.8 53.1C224.8 47.3 225.967 42.2333 228.3 37.9C230.7 33.5667 234.033 30.2333 238.3 27.9C242.567 25.5667 247.467 24.4 253 24.4C258.4 24.4 263.2 25.5333 267.4 27.8C271.6 30.0667 274.867 33.3 277.2 37.5C279.6 41.7 280.8 46.6 280.8 52.2ZM263.3 47.7C263.3 44.7667 262.3 42.4333 260.3 40.7C258.3 38.9667 255.8 38.1 252.8 38.1C249.933 38.1 247.5 38.9333 245.5 40.6C243.567 42.2667 242.367 44.6333 241.9 47.7H263.3Z" fill="#0F0F0F"/>
<path d="M181.4 24.4C185.333 24.4 188.767 25.2 191.7 26.8C194.7 28.4 197 30.5 198.6 33.1V25.2H215.7V80.9C215.7 86.033 214.667 90.667 212.6 94.8C210.6 99 207.5 102.333 203.3 104.8C199.167 107.267 194 108.5 187.8 108.5C179.533 108.5 172.833 106.533 167.7 102.6C162.567 98.733 159.633 93.467 158.9 86.8H175.8C176.333 88.933 177.6 90.6 179.6 91.8C181.6 93.067 184.067 93.7 187 93.7C190.533 93.7 193.333 92.667 195.4 90.6C197.533 88.6 198.6 85.367 198.6 80.9V73C196.933 75.6 194.633 77.733 191.7 79.4C188.767 81 185.333 81.8 181.4 81.8C176.8 81.8 172.633 80.633 168.9 78.3C165.167 75.9 162.2 72.533 160 68.2C157.867 63.8 156.8 58.7333 156.8 53C156.8 47.2667 157.867 42.2333 160 37.9C162.2 33.5667 165.167 30.2333 168.9 27.9C172.633 25.5667 176.8 24.4 181.4 24.4ZM198.6 53.1C198.6 48.8333 197.4 45.4667 195 43C192.667 40.5333 189.8 39.3 186.4 39.3C183 39.3 180.1 40.5333 177.7 43C175.367 45.4 174.2 48.7333 174.2 53C174.2 57.2667 175.367 60.667 177.7 63.2C180.1 65.667 183 66.9 186.4 66.9C189.8 66.9 192.667 65.667 195 63.2C197.4 60.733 198.6 57.3667 198.6 53.1Z" fill="#0F0F0F"/>
<path d="M134.2 81L123.5 65.5L114.5 81H96L114.4 52.5L95.5 25.2H114.7L125.4 40.6L134.4 25.2H152.9L134.2 53.3L153.4 81H134.2Z" fill="#0F0F0F"/>
<path d="M76.8 19.4C73.8 19.4 71.333 18.5333 69.4 16.8C67.533 15 66.6 12.8 66.6 10.2C66.6 7.5333 67.533 5.3333 69.4 3.6C71.333 1.8 73.8 0.900002 76.8 0.900002C79.733 0.900002 82.133 1.8 84 3.6C85.933 5.3333 86.9 7.5333 86.9 10.2C86.9 12.8 85.933 15 84 16.8C82.133 18.5333 79.733 19.4 76.8 19.4ZM85.3 25.2V81H68.2V25.2H85.3Z" fill="#0F0F0F"/>
<path d="M17.3 33.1C18.9667 30.5 21.2667 28.4 24.2 26.8C27.133 25.2 30.567 24.4 34.5 24.4C39.1 24.4 43.267 25.5667 47 27.9C50.733 30.2333 53.667 33.5667 55.8 37.9C58 42.2333 59.1 47.2667 59.1 53C59.1 58.7333 58 63.8 55.8 68.2C53.667 72.533 50.733 75.9 47 78.3C43.267 80.633 39.1 81.8 34.5 81.8C30.633 81.8 27.2 81 24.2 79.4C21.2667 77.8 18.9667 75.733 17.3 73.2V107.6H0.199997V25.2H17.3V33.1ZM41.7 53C41.7 48.7333 40.5 45.4 38.1 43C35.767 40.5333 32.867 39.3 29.4 39.3C26 39.3 23.1 40.5333 20.7 43C18.3667 45.4667 17.2 48.8333 17.2 53.1C17.2 57.3667 18.3667 60.733 20.7 63.2C23.1 65.667 26 66.9 29.4 66.9C32.8 66.9 35.7 65.667 38.1 63.2C40.5 60.667 41.7 57.2667 41.7 53Z" fill="#0F0F0F"/>
</svg>
